<svg width="35" height="23" viewBox="0 0 35 23" fill="none" xmlns="http://www.w3.org/2000/svg">
<path d="M31.7593 0H3.73584C2.08478 0 0.747559 1.25844 0.747559 2.79488V19.5641C0.747559 21.1097 2.09461 22.359 3.73584 22.359H31.7593C33.3965 22.359 34.7476 21.115 34.7476 19.5641V2.79488C34.7476 1.26117 33.4156 0 31.7593 0ZM31.3408 1.86325C30.7302 2.43123 20.2234 12.2063 19.8606 12.5438C19.2962 13.0718 18.5458 13.3624 17.7476 13.3624C16.9494 13.3624 16.199 13.0717 15.6327 12.5421C15.3887 12.3151 4.99776 2.64793 4.15433 1.86325H31.3408ZM2.73975 19.1849V3.17529L11.3485 11.1845L2.73975 19.1849ZM4.15559 20.4958L12.761 12.4985L14.2258 13.8613C15.1665 14.7412 16.4172 15.2257 17.7476 15.2257C19.0779 15.2257 20.3286 14.7412 21.2674 13.8631L22.7341 12.4985L31.3395 20.4958H4.15559ZM32.7554 19.1849L24.1466 11.1845L32.7554 3.17529V19.1849Z" fill="#632412"/>
</svg>
