<svg width="13" height="23" viewBox="0 0 13 23" fill="none" xmlns="http://www.w3.org/2000/svg">
    <path d="M9.39632 11.7856L0.876516 20.3054L0.876491 20.3054C0.374503 20.8075 0.374503 21.6214 0.876491 22.1235L0.876596 22.1236C1.37868 22.6255 2.19252 22.6255 2.69459 22.1236L2.69465 22.1235L12.1235 12.6946L12.1236 12.6946C12.6255 12.1925 12.6255 11.3786 12.1236 10.8766L12.1235 10.8765L2.69465 1.44764L2.6947 1.44759L2.68844 1.44154C2.17766 0.948245 1.36372 0.962411 0.870418 1.47319L0.8704 1.47321C0.389256 1.97145 0.389219 2.76134 0.870426 3.25958L0.870372 3.25963L0.876518 3.26578L9.39632 11.7856Z" fill="#632412" stroke="#632412"/>
</svg>