<svg width="35" height="31" viewBox="0 0 35 31" fill="none" xmlns="http://www.w3.org/2000/svg">
<path d="M25.1833 31C24.0858 31 22.9976 30.8231 21.9335 30.4706C17.2455 28.9179 12.8941 26.3889 9.34942 23.1571C5.80478 19.9253 3.03109 15.9578 1.32816 11.6835C0.780931 10.3099 0.619437 8.89191 0.848331 7.46888C1.06275 6.13593 1.62904 4.84192 2.48605 3.72669C3.34684 2.60656 4.49443 1.6749 5.80471 1.03246C7.20198 0.347404 8.72708 0 10.3378 0C10.8387 0 11.2717 0.31913 11.3767 0.765705L13.0443 7.86145C13.1198 8.18276 13.0115 8.51708 12.7567 8.74945L9.90714 11.3475C12.5953 16.2205 16.9572 20.1975 22.3018 22.6485L25.1513 20.0504C25.4062 19.8181 25.7729 19.7194 26.1253 19.7881L33.9077 21.3087C34.3976 21.4044 34.7476 21.7991 34.7476 22.2559C34.7476 23.7244 34.3665 25.115 33.6151 26.389C32.9105 27.5837 31.8887 28.63 30.6601 29.4148C29.437 30.1962 28.0178 30.7125 26.5558 30.908C26.0977 30.9694 25.6396 30.9999 25.1833 31V31ZM9.48886 1.9798C7.36427 2.19364 5.47854 3.20897 4.22629 4.83853C2.81813 6.6709 2.48977 8.92467 3.32539 11.022C6.59937 19.2395 13.6462 25.6645 22.6589 28.6496C24.9592 29.4115 27.4311 29.1122 29.4409 27.8282C31.2282 26.6865 32.3417 24.9671 32.5763 23.03L26.2453 21.7931L23.2693 24.5064C22.9526 24.7952 22.4715 24.8719 22.0663 24.6982C15.7453 21.9907 10.6288 17.3256 7.65917 11.5624C7.46879 11.1929 7.55286 10.7542 7.86954 10.4655L10.8455 7.75216L9.48886 1.9798Z" fill="#632412"/>
</svg>
