<svg width="28" height="38" viewBox="0 0 28 38" fill="none" xmlns="http://www.w3.org/2000/svg">
<path d="M14 0C6.2804 0 0 5.99302 0 13.3594C0 15.8482 0.722478 18.2771 2.08981 20.3843L13.2031 37.4737C13.416 37.8011 13.791 38 14.1944 38C14.1975 38 14.2005 38 14.2036 38C14.6105 37.997 14.9863 37.7919 15.1953 37.4588L26.0253 20.2038C27.3172 18.1411 28 15.7744 28 13.3594C28 5.99302 21.7196 0 14 0ZM24.0229 19.0607L14.1767 34.7482L4.07299 19.2112C2.93487 17.4573 2.31778 15.4338 2.31778 13.3594C2.31778 7.22074 7.567 2.21172 14 2.21172C20.433 2.21172 25.6744 7.22074 25.6744 13.3594C25.6744 15.3723 25.098 17.344 24.0229 19.0607Z" fill="#632412"/>
<path d="M14 6.67969C10.1402 6.67969 7 9.6762 7 13.3594C7 17.019 10.0891 20.0391 14 20.0391C17.9591 20.0391 21 16.9788 21 13.3594C21 9.6762 17.8598 6.67969 14 6.67969ZM14 17.8273C11.4133 17.8273 9.31778 15.821 9.31778 13.3594C9.31778 10.9039 11.4268 8.89141 14 8.89141C16.5732 8.89141 18.6744 10.9039 18.6744 13.3594C18.6744 15.7851 16.6276 17.8273 14 17.8273Z" fill="#632412"/>
</svg>
