<svg width="20" height="20" viewBox="0 0 20 20" fill="none" xmlns="http://www.w3.org/2000/svg">
<path d="M18.3049 1.60827C16.1129 -0.536499 12.6086 -0.536033 10.4171 1.60933L1.22597 10.8005C-0.43597 12.5016 -0.404209 15.2279 1.29692 16.8898C2.97006 18.5245 5.64217 18.5245 7.31531 16.8898L15.638 8.56712C16.72 7.48515 16.72 5.7309 15.638 4.64893C14.5561 3.56696 12.8018 3.56696 11.7199 4.64893L3.75896 12.6098C3.48129 12.8973 3.48926 13.3554 3.77677 13.6331C4.05724 13.904 4.50186 13.904 4.78233 13.6331L12.7432 5.67225C13.2711 5.16652 14.109 5.18455 14.6147 5.71245C15.1051 6.22441 15.1051 7.03184 14.6147 7.5438L6.29199 15.8665C5.16766 16.9748 3.35768 16.9619 2.24934 15.8375C1.15219 14.7246 1.15219 12.9368 2.24934 11.8238L11.4405 2.63265C13.0777 0.994878 15.7325 0.994411 17.3703 2.63155C19.008 4.26868 19.0085 6.92354 17.3714 8.56131L8.18017 17.7525C7.87659 18.0125 7.84122 18.4694 8.10121 18.7729C8.36119 19.0765 8.81807 19.1119 9.12165 18.8519C9.14997 18.8276 9.17635 18.8013 9.2006 18.7729L18.3918 9.58175C20.5696 7.35594 20.5307 3.78607 18.3049 1.60827Z" fill="#632412"/>
</svg>
