<svg width="13" height="23" viewBox="0 0 13 23" fill="none" xmlns="http://www.w3.org/2000/svg">
    <path d="M3.60368 11.2144L12.1235 2.69461L12.1235 2.69459C12.6255 2.19252 12.6255 1.37857 12.1235 0.876509L12.1234 0.876403C11.6213 0.374547 10.8075 0.374509 10.3054 0.876429L10.3054 0.876483L0.876483 10.3054L0.876429 10.3054C0.374524 10.8075 0.374524 11.6214 0.876429 12.1234L0.876482 12.1235L10.3054 21.5524L10.3053 21.5524L10.3116 21.5585C10.8223 22.0518 11.6363 22.0376 12.1296 21.5268L12.1296 21.5268C12.6107 21.0285 12.6108 20.2387 12.1296 19.7404L12.1296 19.7404L12.1235 19.7342L3.60368 11.2144Z" fill="#632412" stroke="#632412"/>
</svg>