<svg width="33" height="34" viewBox="0 0 33 34" fill="none" xmlns="http://www.w3.org/2000/svg">
<path d="M29.2174 3.57954C22.0165 1.84032 14.8027 -0.194044 7.41798 2.39063C2.63669 4.18359 2.63669 9.36334 2.83592 13.7462C2.83592 14.9414 1.44143 16.5353 2.039 17.9298C3.23427 21.9142 4.23042 25.8985 8.41402 27.8907C9.01171 28.2892 8.41402 29.086 8.81248 29.6837C8.61325 29.6837 8.21479 29.8829 8.21479 30.0821C8.21479 31.037 8.6433 32.4976 8.35867 33.4392L11.9337 31.1478C17.5963 26.2942 23.6056 29.6837 31.1171 21.7295L29.2174 3.57954Z" fill="#512D84"/>
<path d="M32.0332 8.14203L32.0235 8.10297C31.233 4.90732 27.6693 1.47834 24.3966 0.764967L24.3597 0.757341C19.0662 -0.252447 13.6989 -0.252447 8.40662 0.757341L8.36859 0.764967C5.09701 1.47834 1.53317 4.90755 0.741682 8.10297L0.732899 8.14203C-0.2443 12.6047 -0.2443 17.1306 0.732899 21.5933L0.741682 21.6324C1.49954 24.6915 4.79782 27.9631 7.94841 28.8628V32.43C7.94841 33.7212 9.5218 34.3553 10.4165 33.4235L14.0307 29.6666C14.8147 29.7104 15.599 29.7349 16.3831 29.7349C19.0476 29.7349 21.7134 29.4829 24.3596 28.9781L24.3965 28.9705C27.6692 28.2571 31.2329 24.8279 32.0234 21.6325L32.0331 21.5934C33.0103 17.1306 33.0103 12.605 32.0332 8.14203ZM29.1729 20.9463C28.6451 23.0311 25.9393 25.623 23.7894 26.1019C20.9749 26.6372 18.1379 26.8659 15.3039 26.7874C15.2475 26.7858 15.1933 26.8077 15.1541 26.8482C14.7518 27.261 12.5152 29.5572 12.5152 29.5572L9.70843 32.438C9.50319 32.652 9.14264 32.5063 9.14264 32.211V26.3016C9.14264 26.2039 9.07295 26.1211 8.97703 26.1021C8.97645 26.1019 8.97599 26.1019 8.97542 26.1018C6.82549 25.6229 4.12062 23.031 3.59192 20.9462C2.71237 16.9123 2.71237 12.823 3.59192 8.78919C4.12062 6.70432 6.82549 4.11247 8.97542 3.63358C13.891 2.69868 18.875 2.69868 23.7895 3.63358C25.9405 4.11247 28.6452 6.70432 29.173 8.78919C30.0535 12.8231 30.0535 16.9124 29.1729 20.9463Z" fill="white"/>
<path d="M21.0598 23.674C20.7293 23.5735 20.4144 23.5062 20.1216 23.3849C17.0903 22.1273 14.3006 20.5048 12.091 18.0177C10.8343 16.6035 9.85077 15.0068 9.01941 13.317C8.62511 12.5157 8.29287 11.6831 7.95416 10.8556C7.64537 10.1012 8.10023 9.32188 8.57912 8.75331C9.02854 8.21976 9.60693 7.81159 10.2333 7.51055C10.7221 7.27572 11.2042 7.41116 11.5613 7.82546C12.3331 8.7213 13.0422 9.6629 13.616 10.7014C13.9691 11.3401 13.8722 12.1208 13.2324 12.5554C13.0768 12.6611 12.9351 12.7852 12.7903 12.9044C12.6632 13.009 12.5437 13.1146 12.4566 13.2562C12.2975 13.5152 12.2898 13.8209 12.3922 14.1025C13.1812 16.2706 14.511 17.9566 16.6934 18.8648C17.0426 19.0101 17.3932 19.1792 17.7956 19.1323C18.4693 19.0537 18.6875 18.3145 19.1597 17.9284C19.6211 17.5511 20.211 17.5461 20.708 17.8607C21.2053 18.1755 21.6872 18.5132 22.1663 18.8547C22.6366 19.1898 23.1048 19.5174 23.5385 19.8996C23.9557 20.2669 24.0993 20.7488 23.8644 21.2473C23.4345 22.1603 22.8087 22.9197 21.9063 23.4046C21.6515 23.5412 21.3471 23.5854 21.0598 23.674C20.7293 23.5735 21.3471 23.5854 21.0598 23.674Z" fill="white"/>
<path d="M16.3911 6.4669C20.3559 6.57807 23.6126 9.20932 24.3105 13.1292C24.4294 13.7972 24.4717 14.4799 24.5246 15.1579C24.5469 15.443 24.3853 15.7139 24.0777 15.7177C23.7599 15.7215 23.617 15.4555 23.5962 15.1706C23.5554 14.6064 23.5271 14.0396 23.4493 13.4803C23.0389 10.5266 20.6837 8.08304 17.7438 7.55874C17.3013 7.47981 16.8488 7.45912 16.4005 7.41209C16.1173 7.38239 15.7463 7.36528 15.6836 7.01305C15.631 6.71779 15.8801 6.48273 16.1613 6.46759C16.2375 6.46309 16.3143 6.46667 16.3911 6.4669C20.3561 6.57807 16.3143 6.46667 16.3911 6.4669Z" fill="white"/>
<path d="M22.4166 14.2778C22.41 14.3274 22.4066 14.4438 22.3775 14.5533C22.2724 14.9513 21.6687 15.0011 21.5299 14.5995C21.4886 14.4804 21.4825 14.3447 21.4823 14.2165C21.4809 13.3768 21.2984 12.5378 20.8749 11.8071C20.4395 11.056 19.7744 10.425 18.9944 10.0428C18.5227 9.81189 18.0127 9.66825 17.4957 9.58285C17.2698 9.54541 17.0414 9.52287 16.8143 9.49121C16.5392 9.45296 16.3922 9.27765 16.4054 9.00654C16.4175 8.75253 16.6032 8.56959 16.8801 8.58543C17.7899 8.63697 18.6689 8.83389 19.4779 9.26216C21.1229 10.1334 22.0626 11.5084 22.337 13.3445C22.3493 13.4279 22.3692 13.5101 22.3756 13.5936C22.391 13.7995 22.4009 14.0058 22.4166 14.2778C22.41 14.3272 22.4009 14.0058 22.4166 14.2778Z" fill="white"/>
<path d="M19.9506 14.1819C19.619 14.1879 19.4415 14.0041 19.4071 13.7002C19.3835 13.4882 19.3645 13.2733 19.3139 13.0669C19.2143 12.6605 18.9983 12.284 18.6564 12.0349C18.4951 11.9174 18.3122 11.8318 18.1207 11.7763C17.8774 11.7059 17.6246 11.7253 17.382 11.6659C17.1184 11.6013 16.9726 11.3878 17.0141 11.1406C17.0517 10.9155 17.2706 10.7398 17.5167 10.7577C19.0539 10.8687 20.1525 11.6634 20.3093 13.4731C20.3206 13.6008 20.3335 13.7357 20.3052 13.858C20.2564 14.0669 20.1016 14.1717 19.9506 14.1819C19.6189 14.1877 20.1016 14.1717 19.9506 14.1819Z" fill="white"/>
<path d="M16.4014 6.46713C16.398 6.46713 16.3947 6.46677 16.3913 6.46677C16.3879 6.46653 16.3922 6.46677 16.4014 6.46713Z" fill="white"/>
<path d="M16.3916 6.46655C16.395 6.46655 16.3982 6.4669 16.4015 6.4669C16.6216 6.47476 20.2003 6.57333 16.3916 6.46655Z" fill="white"/>
</svg>
