<svg width="29" height="29" viewBox="0 0 29 29" fill="none" xmlns="http://www.w3.org/2000/svg">
<path d="M14.5036 0H14.4964C6.50144 0 0 6.50325 0 14.5C0 17.6719 1.02225 20.6117 2.76044 22.9988L0.953375 28.3856L6.52681 26.6039C8.81962 28.1228 11.5547 29 14.5036 29C22.4986 29 29 22.4949 29 14.5C29 6.50506 22.4986 0 14.5036 0Z" fill="#4CAF50"/>
<path d="M22.9408 20.4757C22.5909 21.4635 21.2026 22.2828 20.0951 22.522C19.3375 22.6833 18.3479 22.812 15.0165 21.4309C10.7553 19.6655 8.01119 15.3355 7.79731 15.0545C7.5925 14.7736 6.07544 12.7617 6.07544 10.681C6.07544 8.60021 7.13213 7.58702 7.55806 7.15202C7.90788 6.79496 8.48606 6.63184 9.04069 6.63184C9.22013 6.63184 9.38144 6.6409 9.52644 6.64815C9.95238 6.66627 10.1663 6.69165 10.4472 7.36409C10.797 8.2069 11.6489 10.2876 11.7504 10.5015C11.8537 10.7154 11.957 11.0054 11.812 11.2863C11.6761 11.5763 11.5564 11.705 11.3426 11.9515C11.1287 12.198 10.9257 12.3865 10.7118 12.6511C10.5161 12.8813 10.2949 13.1278 10.5414 13.5538C10.7879 13.9706 11.6398 15.3608 12.8941 16.4773C14.5126 17.9183 15.8249 18.3786 16.2943 18.5744C16.6441 18.7194 17.061 18.685 17.3166 18.4131C17.641 18.0633 18.0416 17.4833 18.4494 16.9123C18.7394 16.5027 19.1055 16.452 19.4898 16.597C19.8813 16.7329 21.9529 17.757 22.3789 17.969C22.8048 18.1829 23.0858 18.2844 23.1891 18.4638C23.2906 18.6433 23.2906 19.4861 22.9408 20.4757Z" fill="#FAFAFA"/>
</svg>
